<?xml version="1.0" encoding="UTF-8"?>
<svg xmlns="http://www.w3.org/2000/svg" viewBox="0 0 964 964">
<rect width="964" height="964" fill="#2d333b"/>
<g transform="translate(0,964) scale(0.1,-0.1)" fill="#ffffff" stroke="none">
<path d="M3160 6160 l0 -490 872 -2 873 -3 -110 -85 c-270 -208 -553 -547
-711 -850 -208 -397 -296 -760 -297 -1220 -1 -377 43 -631 174 -1009 21 -63
39 -116 39 -118 0 -1 108 -3 240 -3 132 0 240 3 240 6 0 4 -20 49 -45 100
-276 576 -365 1200 -249 1760 13 67 74 274 93 319 98 230 150 332 244 472 230
341 542 610 934 807 159 80 159 78 8 -76 -499 -508 -698 -947 -697 -1533 2
-599 246 -1163 750 -1737 52 -60 99 -108 103 -108 5 0 9 727 9 1640 l0 1640
725 0 725 0 0 490 0 490 -1960 0 -1960 0 0 -490z"/>
</g>
</svg>
